<svg width="244" height="62" viewBox="0 0 244 62" fill="none" xmlns="http://www.w3.org/2000/svg">
<path d="M41.8081 11.04C40.5815 10.7733 39.1148 10.56 37.4081 10.4C35.7015 10.24 34.3148 10.16 33.2481 10.16C31.2748 10.16 29.2481 10.56 27.1681 11.36C25.1415 12.16 23.3015 13.4133 21.6481 15.12C19.9948 16.8267 18.6348 19.04 17.5681 21.76C16.5548 24.4267 16.0481 27.6533 16.0481 31.44C16.0481 34.96 16.5281 38 17.4881 40.56C18.5015 43.12 19.8081 45.2267 21.4081 46.88C23.0615 48.48 24.9548 49.68 27.0881 50.48C29.2748 51.2267 31.5415 51.6 33.8881 51.6C36.2881 51.6 38.7681 51.3867 41.3281 50.96C43.9415 50.5333 46.1548 49.8667 47.9681 48.96L50.4481 57.68C47.3548 58.8 44.3415 59.6 41.4081 60.08C38.4748 60.6133 35.3281 60.9067 31.9681 60.96C27.6481 61.0133 23.5948 60.4267 19.8081 59.2C16.0748 58.0267 12.7948 56.2133 9.96813 53.76C7.14146 51.3067 4.90146 48.24 3.24813 44.56C1.64813 40.8267 0.848125 36.4533 0.848125 31.44C0.848125 26.2133 1.67479 21.68 3.32813 17.84C4.98146 14 7.19479 10.8267 9.96813 8.32C12.7948 5.76 16.0215 3.86666 19.6481 2.64C23.3281 1.41333 27.1681 0.799997 31.1681 0.799997C32.7148 0.799997 34.3948 0.906664 36.2081 1.12C38.0215 1.33333 39.7815 1.62666 41.4881 2C43.1948 2.37333 44.7681 2.77333 46.2081 3.2C47.6481 3.62666 48.7681 4.05333 49.5681 4.48V15.2C49.5681 16.3733 49.3015 17.3867 48.7681 18.24C48.2881 19.0933 47.2748 19.52 45.7281 19.52C44.1815 19.52 43.1415 19.0933 42.6081 18.24C42.0748 17.3867 41.8081 16.3733 41.8081 15.2V11.04ZM57.82 9.28C56.86 9.28 56.0333 9.01333 55.34 8.48C54.6467 7.94667 54.3 7.06667 54.3 5.84C54.3 4.61333 54.6467 3.73333 55.34 3.2C56.0333 2.66666 56.86 2.4 57.82 2.4H88.78C92.8333 2.4 96.14 3.04 98.7 4.32C101.313 5.54667 103.367 7.12 104.86 9.04C106.407 10.96 107.473 13.0667 108.06 15.36C108.647 17.6 108.94 19.7333 108.94 21.76C108.94 23.1467 108.807 24.5867 108.54 26.08C108.273 27.5733 107.847 29.04 107.26 30.48C106.673 31.92 105.847 33.3067 104.78 34.64C103.767 35.92 102.513 37.04 101.02 38L111.98 59.36H95.34L86.14 41.12H76.14V59.36H60.94V9.28H57.82ZM93.74 21.76C93.74 19.7867 93.4467 18.1333 92.86 16.8C92.3267 15.4667 91.6067 14.4267 90.7 13.68C89.7933 12.88 88.7533 12.32 87.58 12C86.46 11.68 85.2867 11.52 84.06 11.52H76.14V32H84.06C85.2867 32 86.46 31.84 87.58 31.52C88.7533 31.2 89.7933 30.6667 90.7 29.92C91.6067 29.12 92.3267 28.08 92.86 26.8C93.4467 25.4667 93.74 23.7867 93.74 21.76ZM126.86 59.36C124.78 59.36 123.26 58.88 122.3 57.92C121.393 56.96 120.94 55.3333 120.94 53.04V9.28H117.82C116.86 9.28 116.033 9.01333 115.34 8.48C114.647 7.94667 114.3 7.06667 114.3 5.84C114.3 4.61333 114.647 3.73333 115.34 3.2C116.033 2.66666 116.86 2.4 117.82 2.4H164.3V11.76H136.14V25.92H163.9V35.28H136.14V47.44C136.14 49.1467 137.02 50 138.78 50H165.1V59.36H126.86ZM170.614 9.28C169.654 9.28 168.827 9.01333 168.134 8.48C167.44 7.94667 167.094 7.06667 167.094 5.84C167.094 4.61333 167.44 3.73333 168.134 3.2C168.827 2.66666 169.654 2.4 170.614 2.4H184.054C185.28 2.4 186.107 2.61333 186.534 3.04C187.014 3.46666 187.387 4.21333 187.654 5.28L194.854 39.44L203.734 2.4H216.854L224.854 39.6L233.734 2.4H243.974L230.214 59.36H215.574L207.654 25.12L200.134 59.36H185.574L174.054 9.28H170.614Z" fill="#222222"/>
</svg>