<svg width="18" height="18" viewBox="0 0 18 18" fill="none" xmlns="http://www.w3.org/2000/svg">
<path id="Vector" d="M15.1921 9.8099C15.2255 9.54323 15.2505 9.2724 15.2505 8.9974C15.2505 8.7224 15.2255 8.45156 15.1921 8.1849L16.9546 6.80573C17.113 6.68073 17.1588 6.45573 17.0546 6.2724L15.388 3.3849C15.2838 3.20573 15.0671 3.13073 14.8796 3.20573L12.8046 4.04323C12.3755 3.71406 11.9046 3.4349 11.3963 3.2224L11.0838 1.01406C11.0463 0.818229 10.8755 0.664062 10.6671 0.664062H7.3338C7.12547 0.664062 6.95463 0.818229 6.9213 1.01406L6.6088 3.2224C6.10047 3.4349 5.62963 3.7099 5.20047 4.04323L3.12547 3.20573C2.93797 3.1349 2.7213 3.20573 2.61713 3.3849L0.950467 6.2724C0.8463 6.45156 0.892133 6.67656 1.05047 6.80573L2.8088 8.1849C2.77547 8.45156 2.75047 8.7224 2.75047 8.9974C2.75047 9.2724 2.77547 9.54323 2.8088 9.8099L1.05047 11.1891C0.892133 11.3141 0.8463 11.5391 0.950467 11.7224L2.61713 14.6099C2.7213 14.7891 2.93797 14.8641 3.12547 14.7891L5.20047 13.9516C5.62963 14.2807 6.10047 14.5599 6.6088 14.7724L6.9213 16.9807C6.95463 17.1766 7.12547 17.3307 7.3338 17.3307H10.6671C10.8755 17.3307 11.0463 17.1766 11.0796 16.9807L11.3921 14.7724C11.9005 14.5599 12.3713 14.2849 12.8005 13.9516L14.8755 14.7891C15.063 14.8599 15.2796 14.7891 15.3838 14.6099L17.0505 11.7224C17.1546 11.5432 17.1088 11.3182 16.9505 11.1891L15.1921 9.8099ZM9.00047 11.9141C7.38797 11.9141 6.0838 10.6099 6.0838 8.9974C6.0838 7.3849 7.38797 6.08073 9.00047 6.08073C10.613 6.08073 11.9171 7.3849 11.9171 8.9974C11.9171 10.6099 10.613 11.9141 9.00047 11.9141Z" fill="#A2ACBD"/>
</svg>
